<?xml version="1.0" standalone="no"?>
<!DOCTYPE svg PUBLIC "-//W3C//DTD SVG 20010904//EN"
 "http://www.w3.org/TR/2001/REC-SVG-20010904/DTD/svg10.dtd">
<svg version="1.0" xmlns="http://www.w3.org/2000/svg"
 width="1097.000000pt" height="1280.000000pt" viewBox="0 0 1097.000000 1280.000000"
 preserveAspectRatio="xMidYMid meet">

<g transform="translate(0.000000,1280.000000) scale(0.100000,-0.100000)"
fill="#000000" stroke="none">
<path d="M5457 12209 c-6 -47 -82 -202 -152 -309 -59 -91 -306 -430 -379 -520
-137 -168 -387 -400 -621 -577 -66 -49 -150 -114 -186 -144 -37 -30 -113 -88
-170 -129 -219 -159 -528 -407 -734 -589 -77 -69 -142 -128 -145 -131 -3 -3
-52 -47 -110 -97 -204 -175 -569 -548 -747 -763 -253 -305 -384 -488 -610
-859 -271 -443 -532 -1001 -671 -1431 -70 -219 -147 -583 -183 -870 -18 -138
-18 -621 -1 -750 68 -500 126 -722 264 -992 66 -131 251 -415 344 -528 171
-209 380 -366 739 -555 150 -80 248 -118 633 -251 513 -177 556 -189 938 -273
562 -124 766 -181 994 -278 380 -163 604 -403 738 -793 32 -95 80 -279 98
-378 8 -41 21 -14 29 55 22 205 170 562 328 792 77 110 201 246 267 291 241
164 632 307 1185 435 395 91 551 137 775 230 63 26 194 76 290 110 320 114
452 175 667 310 334 210 473 350 665 668 222 370 306 630 354 1097 21 211 21
563 -1 750 -28 244 -80 496 -156 765 -117 411 -302 805 -595 1272 -47 76 -127
206 -177 288 -261 434 -505 773 -829 1152 -187 218 -277 314 -458 487 -259
248 -353 329 -995 860 -151 125 -298 258 -510 464 -245 236 -323 324 -497 555
-250 332 -315 443 -357 609 l-18 70 -6 -43z m-829 -1475 c29 -20 52 -65 52
-101 0 -31 -34 -93 -50 -93 -7 0 -10 -110 -10 -319 0 -374 21 -316 -171 -473
-69 -57 -176 -145 -237 -197 l-112 -93 0 -287 0 -286 655 -655 655 -655 0
1286 c0 1068 -2 1288 -13 1292 -8 3 -22 22 -31 42 -24 51 -15 95 30 134 98 86
239 -23 179 -139 -8 -16 -22 -33 -30 -37 -13 -8 -15 -191 -13 -1580 l3 -1572
297 247 297 247 1 372 0 372 -25 37 c-14 20 -25 50 -25 66 0 124 172 164 225
52 22 -47 13 -96 -26 -133 l-29 -28 0 -395 0 -395 -360 -299 -360 -299 0 -217
0 -218 158 0 c203 0 261 -18 335 -99 62 -69 84 -198 52 -307 -18 -60 -71 -125
-131 -160 -24 -14 -44 -30 -44 -35 0 -6 41 -98 90 -207 l90 -197 0 -536 c0
-487 2 -538 17 -550 53 -45 48 -140 -10 -181 -59 -42 -147 -23 -176 40 -23 48
-3 131 34 146 14 5 15 63 13 538 l-3 533 -89 198 -88 197 -124 0 -124 0 0
-719 0 -718 260 -262 c204 -204 266 -261 286 -261 33 0 79 -24 98 -52 20 -28
21 -90 1 -127 -19 -37 -75 -64 -117 -56 -61 12 -98 57 -98 122 0 36 -10 48
-207 245 -114 115 -211 208 -214 208 -4 0 -9 -582 -12 -1293 -3 -710 -8 -1302
-12 -1314 -4 -13 -10 -23 -14 -23 -3 0 -21 38 -40 83 -34 82 -34 82 -41 297
-4 118 -8 725 -9 1348 0 622 -4 1132 -7 1132 -6 0 -133 -104 -310 -255 -39
-33 -128 -107 -197 -165 l-127 -105 0 -497 0 -497 25 -37 c66 -97 -6 -211
-119 -190 -85 16 -116 131 -56 199 l30 35 0 515 c0 476 1 516 18 535 9 11 105
93 212 183 107 89 270 225 363 302 l167 140 0 1422 0 1422 -710 714 -709 714
-1 617 c0 670 -2 648 54 648 51 0 55 -18 58 -260 l3 -223 198 164 197 163 0
296 0 297 -24 23 c-48 44 -42 129 12 169 33 25 108 28 140 5z m1471 -314 c55
-39 60 -122 11 -175 -20 -21 -20 -32 -20 -621 l0 -599 330 -330 330 -330 0
-987 0 -988 160 -482 160 -481 0 -944 0 -944 25 -37 c14 -20 25 -50 25 -67 0
-69 -76 -134 -138 -119 -99 24 -132 143 -56 203 l24 19 -2 176 -3 177 -337
-282 -338 -282 0 -289 c0 -181 4 -288 10 -288 5 0 19 -19 31 -42 18 -36 20
-47 10 -79 -23 -76 -102 -110 -171 -74 -64 33 -78 130 -26 184 l26 27 2 309 3
310 350 293 c193 161 371 309 397 330 l47 37 0 685 1 685 -44 140 -44 140
-198 0 -198 0 -56 -157 -55 -158 -57 0 c-32 0 -58 4 -58 10 0 5 34 98 76 207
42 109 100 261 129 338 29 77 83 218 119 314 l66 173 0 947 0 946 -330 330
-330 331 0 627 c0 417 -3 627 -10 627 -18 0 -50 64 -50 102 0 39 36 93 74 109
30 13 82 3 115 -21z m-2468 -1203 c18 -12 40 -34 47 -47 18 -35 8 -95 -22
-130 l-25 -31 -1 -506 c0 -443 -2 -509 -16 -532 -9 -14 -53 -57 -99 -96 -46
-38 -188 -157 -314 -264 l-231 -194 0 -512 0 -511 116 -340 c64 -186 142 -417
175 -512 l59 -174 0 -466 0 -467 460 -459 460 -460 0 -348 c0 -191 4 -348 8
-348 12 0 42 -67 42 -93 0 -52 -67 -117 -120 -117 -59 0 -120 62 -120 121 0
27 29 81 51 97 18 12 19 33 19 330 l0 316 -397 398 c-218 218 -398 396 -400
394 -2 -2 -3 -263 -3 -581 l0 -577 25 -30 c37 -44 35 -119 -3 -158 -76 -76
-202 -26 -202 80 0 37 15 69 41 90 19 15 19 43 17 924 l-3 909 -412 -344 -412
-344 -1 -429 0 -428 25 -30 c19 -22 25 -41 25 -75 0 -38 -5 -50 -34 -79 -29
-29 -41 -34 -81 -34 -40 0 -52 5 -81 34 -29 29 -34 41 -34 80 0 36 6 52 30 79
l30 35 0 449 0 449 473 395 472 395 3 138 3 138 -53 160 c-41 126 -57 162 -73
167 -11 3 -101 5 -200 3 l-181 -3 -54 -159 -55 -160 -57 0 c-32 0 -58 4 -58 9
0 5 20 62 44 128 25 65 110 294 190 510 l146 392 0 1110 0 1110 -21 15 c-29
20 -49 82 -38 120 14 51 61 86 115 86 39 0 51 -5 80 -34 29 -29 34 -41 34 -79
0 -34 -6 -53 -25 -75 l-25 -30 0 -521 c0 -287 3 -521 6 -521 6 0 206 166 279
231 36 32 208 176 241 202 l24 19 0 486 0 486 -31 32 c-59 61 -42 156 34 189
45 20 69 18 108 -8z m3805 -261 c29 -29 34 -41 34 -80 0 -36 -6 -52 -30 -79
l-30 -35 0 -629 c0 -346 3 -633 6 -636 6 -6 50 29 149 114 36 32 127 109 433
365 l232 195 0 259 c0 245 -1 260 -20 278 -10 10 -26 33 -33 52 -24 58 -7 108
46 140 116 71 232 -68 146 -176 l-30 -38 1 -276 c1 -151 1 -280 1 -287 -1 -11
-167 -153 -655 -561 -127 -106 -241 -202 -253 -212 l-22 -19 0 -648 c-1 -356
-4 -771 -8 -920 l-6 -273 241 0 242 0 0 -39 c0 -76 21 -71 -307 -71 l-295 0 6
188 c3 103 9 863 12 1690 l6 1502 -31 35 c-24 27 -31 45 -31 76 0 51 13 75 53
99 51 32 103 26 143 -14z m1157 -2536 c129 -40 221 -158 248 -320 9 -58 10
-112 1 -240 -14 -205 -38 -285 -114 -365 l-28 -31 61 -87 60 -87 -1 -467 -1
-467 198 -198 c152 -152 204 -198 223 -198 38 0 88 -36 107 -75 15 -32 16 -40
3 -78 -16 -46 -67 -87 -107 -87 -62 0 -123 64 -123 130 0 32 -17 52 -207 242
l-208 208 -5 344 -5 344 -26 -21 c-15 -12 -69 -58 -120 -102 -123 -104 -628
-527 -746 -624 l-93 -76 0 -486 0 -487 24 -15 c34 -23 51 -80 37 -126 -28 -94
-171 -109 -216 -21 -22 42 -19 82 10 124 l25 37 0 507 c0 279 4 512 8 518 8
13 28 30 660 558 l442 369 0 65 c0 61 -3 68 -46 129 -35 49 -50 63 -62 57 -48
-21 -152 -35 -210 -30 -187 19 -311 138 -343 331 -15 88 -5 347 16 427 42 162
147 275 288 308 64 16 183 11 250 -10z m633 -232 c-3 -128 -9 -338 -13 -467
l-6 -233 235 7 c156 5 237 4 242 -3 3 -5 3 -31 0 -56 l-7 -46 -293 0 -294 0 0
63 c-1 113 21 861 26 915 l5 52 56 0 56 0 -7 -232z m-5056 168 l0 -56 -158 0
-159 0 -6 -377 c-4 -207 -7 -482 -7 -612 l0 -236 307 -307 c291 -292 310 -308
344 -308 27 0 45 -8 67 -28 76 -71 43 -186 -57 -199 -77 -11 -134 36 -134 110
0 41 -4 46 -257 299 -142 141 -261 254 -264 251 -3 -4 -6 -81 -6 -173 0 -157
1 -168 21 -186 65 -59 63 -153 -5 -198 -29 -18 -84 -21 -118 -5 -65 30 -84
121 -36 178 l27 32 -1 827 c0 455 2 851 6 880 l6 52 -160 0 -160 0 0 48 c0 27
2 51 5 53 2 3 171 6 375 8 l370 3 0 -56z m288 -333 c-3 -382 -3 -389 19 -428
50 -94 124 -135 242 -135 92 0 163 30 211 88 57 69 61 96 66 452 3 179 7 344
10 368 l5 42 56 0 55 0 -7 -352 c-3 -194 -11 -378 -17 -408 -23 -120 -89 -205
-204 -261 -65 -32 -74 -34 -179 -34 -100 0 -116 3 -172 29 -73 33 -143 103
-176 173 -20 44 -22 67 -25 278 -2 127 -1 308 3 403 l7 172 55 0 55 0 -4 -387z
m-2592 -4 c132 -210 248 -397 259 -415 11 -19 23 -34 28 -34 4 0 7 96 7 213 0
116 3 303 7 415 l6 202 54 0 53 0 0 -398 c0 -220 -3 -454 -7 -520 l-6 -122
-56 0 -56 0 -51 83 c-28 45 -122 195 -209 332 -87 138 -180 287 -208 332 -28
45 -54 80 -59 77 -4 -3 -8 -189 -8 -415 l0 -409 -60 0 -60 0 0 278 c0 153 3
387 7 520 l6 242 57 0 57 0 239 -381z"/>
<path d="M5538 6304 c-5 -4 -8 -97 -8 -206 l0 -198 143 0 c137 0 146 1 197 28
69 35 100 88 100 173 0 69 -12 104 -48 142 -50 53 -75 60 -232 65 -80 2 -148
1 -152 -4z"/>
<path d="M6656 6218 c-79 -213 -146 -404 -146 -415 0 -10 34 -13 154 -13 85 0
157 3 159 8 5 10 -136 462 -145 462 -3 0 -13 -19 -22 -42z"/>
<path d="M2887 6220 c-52 -139 -147 -415 -147 -427 0 -10 34 -13 161 -13 148
0 160 1 155 18 -3 9 -39 118 -79 242 l-73 225 -17 -45z"/>
<path d="M8399 6330 c-101 -17 -180 -85 -220 -189 -18 -47 -23 -84 -27 -229
-5 -200 7 -266 62 -342 50 -69 110 -95 218 -95 115 0 123 8 71 77 -22 29 -45
63 -52 76 -12 22 -11 22 53 22 l65 0 31 -46 c37 -53 46 -50 85 32 34 72 48
189 43 353 -4 124 -7 141 -32 194 -55 112 -168 168 -297 147z"/>
</g>
</svg>
